<svg xmlns="http://www.w3.org/2000/svg" viewBox="0 0 760 480" role="img" aria-label="Asia Pacific map">
  <rect width="760" height="480" fill="#ffffff"/>
  <path d="M0 348C98 309 175 316 252 350C331 385 426 386 516 353C601 322 690 326 760 357V480H0Z" fill="#285d8f" opacity="0.05"/>
  <g fill="none" stroke="#e7e9ed" stroke-width="1">
    <path d="M22 130H738"/>
    <path d="M22 230H738"/>
    <path d="M22 330H738"/>
    <path d="M22 430H738"/>
    <path d="M170 28V450"/>
    <path d="M320 28V450"/>
    <path d="M470 28V450"/>
    <path d="M620 28V450"/>
  </g>
  <g fill="#e7e9ed" stroke="#ffffff" stroke-width="2.5">
    <path d="M293.9 173.2L288.3 167.7L302.6 164.3L293.9 173.2Z M100.8 59.5L104.9 55.6L98.9 47.4L115.4 44.5L120.1 36.1L133.3 37.6L137.3 30.8L150.4 26.8L171.6 38.2L171.5 45.7L200.3 50.6L207.2 57.8L264.1 63.1L292.4 58.7L309.5 53L306.3 49.6L309.8 46.6L361.3 39.1L350.7 32.6L333.6 32.3L341.5 24.1L358.8 22.9L368.4 14.3L364.6 10.6L378.3 7.4L402.8 10.4L414.1 24.7L425.6 26.2L436.1 33.9L462.8 30.7L450 46.4L436.3 47.2L433.8 59.3L429.5 56.5L417.7 63.7L408.9 62L370.4 75.8L377.8 68.6L374.3 66.1L347.2 76.5L361.5 84L379.1 82.6L357.9 94.5L376.1 109.7L371.8 114.5L377.3 118.4L374.6 126L354.6 143.3L302.6 158.1L300.3 163.1L296.7 163.4L296.5 158.1L277.9 156.2L266.5 148.9L242.2 153.8L243.2 159.2L226.3 154.7L228.2 150.8L222.5 145.6L215.5 146.4L222.6 129.4L206.5 125.1L205.6 120.2L157.4 130.4L156.8 126.7L137.6 126.1L90.8 110.5L91.9 97.3L74 89.9L57.3 73.3L100.8 59.5Z"/>
    <path d="M150.4 26.8L180 19.8L213.2 24.8L223.8 13.9L287.3 26.9L341.5 24.1L335.3 34.2L350.7 32.6L362 37.4L320.3 48L309.8 46.6L306.3 49.6L309.5 53L300.1 57.1L264.1 63.1L207.2 57.8L200.3 50.6L171.5 45.7L171.6 38.2L150.4 26.8Z"/>
    <path d="M433.8 59.3L413.3 71.7L417.7 78.3L394.6 79.5L399.1 73.5L391.7 70.9L397.1 67.9L429.5 56.5L433.8 59.3Z"/>
    <path d="M404.3 81.2L418.7 77.1L426.1 91.1L406.3 97L403.9 86L408.8 85.2L404.3 81.2Z"/>
    <path d="M375.2 144L368.4 155.4L364.2 148L373.4 139.8L375.2 144Z"/>
    <path d="M213.6 125.8L212.4 131.4L199.1 133.8L182.9 155.1L179.4 147.6L172.9 148.2L180.9 141.3L155.7 134.4L153.4 137.6L158.2 140.1L152.6 143.5L156.6 144.8L157.9 156.8L145.2 157.7L142.1 164L101.3 184L98.2 210.1L82.9 221.3L56.4 183.6L50.4 158.3L36.2 160.6L21 147.3L39.9 144.2L29.8 132L44.8 127.5L67.8 107L57.8 97.3L84.8 91.8L91.9 97.3L90.8 110.5L106.5 116.8L99.7 123.3L121 130L152.4 134.5L152.8 127.6L156.8 126.7L163.5 133.1L178.7 132.5L176.4 128.1L205.6 120.2L206.5 125.1L213.6 125.8Z"/>
    <path d="M182.9 155.1L180.9 161.5L174.6 151.7L158.8 155L152.6 143.5L158.2 140.1L153.4 137.6L155.7 134.4L180.9 141.3L172.9 148.2L179.4 147.6L182.9 155.1Z"/>
    <path d="M232.1 162.7L214 172L224.1 182.7L219.4 187.7L228.6 202.9L221.7 212.1L221.5 197.1L212.6 179.2L200.7 184.9L192.9 183.4L193.8 173.1L180.4 157.8L199.1 133.8L212.4 131.4L217.5 125.5L222.6 129.4L222.5 136.9L215.5 146.4L222.5 145.6L228.2 150.8L226.3 154.7L238.9 156L232.1 162.7Z"/>
    <path d="M280.1 192L265.8 191.7L268.2 185.6L257.5 173L238.3 176.4L239.8 167.2L232.1 162.7L243.2 159.2L245.6 153.1L252.5 161.1L260.6 161.1L263.2 165.2L257.1 168.2L279.6 184L280.1 192Z"/>
    <path d="M248.4 201.5L246.8 195.8L251.1 191.9L271.2 193.5L274.2 190.3L281.6 195.1L280.8 200.8L269.7 204.4L272.6 207.2L254.4 208.8L248.4 201.5Z"/>
    <path d="M231.9 228.4L250.9 232.8L259.3 252.7L240.5 245.8L231.9 228.4Z M349.5 239.4L336.2 238.6L327.9 252.1L322.5 253.1L300.8 255.2L295.2 249.4L305.1 250.1L325.2 237.5L332.7 238.5L341.8 226.2L358.1 233.4L349.5 239.4Z"/>
    <path d="M333.4 233.2L332.7 238.5L325.2 237.5L333.4 233.2Z"/>
    <path d="M502.3 271.1L502.5 301.7L479.9 298.4L486.9 293.3L482 284.2L453.8 275.5L449.3 278.2L442.7 272.1L454 269.2L433 263.2L455.9 262.5L458.8 271.9L465.6 274.7L478.7 266.8L502.3 271.1Z M396.3 300.7L392.8 306.5L386.3 307L396.3 300.7Z M349.5 239.4L345.7 243.6L356.8 254.6L349 255.1L338 277.7L298.9 272.6L291.4 261L295.2 249.4L300.8 255.2L322.5 253.1L327.9 252.1L336.2 238.6L349.5 239.4Z M425.4 272L435.1 277L415.7 274.8L425.4 272Z M415.9 248.6L420.9 253.5L417 263.1L412.4 254.1L415.9 248.6Z M382.8 254.7L398.1 252.1L387.8 257.7L364.7 257.7L363.7 261.3L369.7 265.5L385.6 261.7L373.4 267.8L384.4 284L378.3 283.7L381.5 279.8L373.3 280.4L369.9 271.2L365.5 272.6L366.3 284.8L359.3 284.1L360.2 275.3L355.3 272L363.7 256.2L369.3 252.7L382.8 254.7Z M365.4 307.1L356.7 303.8L368.6 305.7L365.4 307.1Z M372.3 299L382.7 296.9L363 300.3L372.3 299Z M352 298.2L357.7 299.8L341.9 301.3L352 298.2Z M287.4 289L335.1 298.2L266.8 291.1L271.3 286.6L287.4 289Z M260.2 263.9L271.7 273.2L269.8 286.4L248.4 278.7L200.2 233L214.7 234.1L247.8 252.2L260.2 263.9Z"/>
    <path d="M369 199L365.6 195.5L373.6 197.3L371.8 201.4L369 199Z M380.6 211.9L390.4 206L383.3 216.4L380.6 211.9Z M405.6 219.2L406.7 225L404.4 229.3L402 224.5L398.9 226.9L399.1 232.6L391.4 229.8L387.3 222L376.2 225L386.5 217.9L399.6 216.5L399.2 212.9L405.6 219.2Z M353.6 215L344.8 219.4L360.2 205.3L361.4 209.2L353.6 215Z M378.9 173.1L374.9 191.4L389.6 194L390.4 199.8L367.6 193.6L370 190.5L363 186.3L368.2 171.7L378.9 173.1Z M376.9 205.1L384.1 204.3L376.7 209.7L376.9 205.1Z M399.8 201.6L401.7 206.8L396.6 205.6L395.2 211.1L391.7 199.7L399.8 201.6Z"/>
    <path d="M502.3 271.1L546.2 287.5L543.2 293.6L566.3 308.6L547.9 306.5L527 294.7L513 302.7L502.5 301.7L502.3 271.1Z M579.2 276L580.4 281.3L566.1 271.7L579.2 276Z M570.3 286.3L550.6 285.9L577.2 279.1L570.3 286.3Z M593.2 284L600.6 290.9L593.2 284Z"/>
    <path d="M546.5 450.9L550.9 456.8L541.1 464.2L535.6 463.8L526.8 452.5L546.5 450.9Z M404.1 410.4L387.7 418.3L362.8 418.7L350.4 423.8L330.6 419.7L335.7 410.4L319.5 381.7L325.4 382.6L319.8 373.6L322.1 364.6L369.1 351.5L383.4 336L389 339.1L386.6 336.9L401.1 325.8L410.2 323.8L427.1 329.3L433.6 317.8L446.6 315.8L441.6 311.9L445.1 311.2L472.5 314.6L475.5 317L465.9 329.4L497.1 342.2L504.1 335.9L512.3 309L521.6 327.3L531.2 329.3L537.9 348L554.1 354.8L559.6 364L566.5 364.2L580.6 377.7L585.3 391.1L580.8 407.7L561.7 434.9L537.4 442.5L528.9 437.2L519.5 441.5L499.9 437.7L492.8 428.9L483.2 426.4L483.8 420.6L474.7 424.8L481.2 413.6L469.1 423L457.8 412.3L438.3 407L404.1 410.4Z"/>
    <path d="M739.4 447.4L733.6 453.1L724.6 453.1L728.5 449.2L719.2 444.7L725 434.7L711.3 421.3L722.5 424.8L733.3 435.6L750.2 436.2L739.4 447.4Z M691.7 463.8L712.4 449.4L722 453.4L711.8 462.9L714.3 465.2L703.5 467L698 474.9L689.5 478.3L670.8 474.6L691.7 463.8Z"/>
  </g>
  <g fill="#68717d" font-family="Inter, Arial, sans-serif" font-size="11" font-weight="700" letter-spacing="1.4">
    <text x="304" y="104">CHINA</text>
    <text x="432" y="86">KOREA</text>
    <text x="408" y="207">PHILIPPINES</text>
    <text x="310" y="296">INDONESIA</text>
    <text x="450" y="403">AUSTRALIA</text>
  </g>
</svg>
