<svg xmlns="http://www.w3.org/2000/svg" width="132" height="22" viewBox="0 0 132 22">
    <g fill="#245AAA" fill-rule="evenodd">
        <path d="M50.73 16.457l3.433-8.713 2.462 6.38c-1.965.78-3.931 1.557-5.895 2.333M54.13 0l-8.553 21.511 11.954-4.761 1.62 3.626c1.08-.01 2.16-.02 3.24-.032C59.637 13.565 56.883 6.781 54.13 0M5.182 16.457h-.032c1.144-2.905 2.29-5.809 3.433-8.713l2.463 6.349c-1.955.787-3.91 1.576-5.864 2.364M8.552 0L0 21.478v.033l11.953-4.763 1.587 3.628c1.09-.01 2.182-.02 3.273-.032C14.059 13.565 11.305 6.781 8.552 0M29.38 13.67c-1.046 1.81-2.487 3.174-4.891 3.63-1.357.19-2.18.15-3.013.093l-.032-13.149c4.99-.233 6.61 1.254 7.936 3.79.865 1.657.967 3.965 0 5.636m3.37-4.276c-.181-.953-.367-1.833-.714-2.623-1.305-2.984-3.875-4.745-7.547-5.247-2.164-.296-2.65-.215-6.22-.215v19.026c1.49 0 2.981 0 4.47-.024 1.183-.072 2.2-.138 3.272-.453 3.714-1.094 5.918-3.492 6.706-7.58.151-.782.19-2.047.033-2.884m12.737-8.069c1.058 0 2.106-.016 3.165-.016 0 .011.003-.023.003-.012-2.657 6.856-5.314 13.714-7.969 20.57L32.62 1.33c1.102-.012 2.19-.01 3.29-.02 1.6 4.176 3.212 8.345 4.809 12.523l.032-.064c1.577-4.169 3.16-8.276 4.737-12.444M130.817 4.185a2.622 2.622 0 0 1-2.62 2.617 2.625 2.625 0 0 1-2.622-2.617 2.627 2.627 0 0 1 2.622-2.622 2.624 2.624 0 0 1 2.62 2.622zm.274 0a2.893 2.893 0 1 0-2.894 2.89 2.89 2.89 0 0 0 2.894-2.89zm-1.347 1.807c-.042-.153-.084-.305-.084-.68v-.327c0-.343-.084-.629-.405-.76.417-.18.453-.598.453-.86 0-.615-.312-.99-1.015-.99h-1.909v3.617h.614V4.51h1.1c.249 0 .549-.006.549.527v.351c0 .067 0 .353.064.604h.633zm-.663-2.58c0 .498-.266.537-.542.537h-1.141V2.947h1.16c.327 0 .523.083.523.466zM96.165 1.305h11.43v2.9H99.4v5.668a4824.53 4824.53 0 0 1 5.682-2.02l-.033 2.8-5.649 2.021v4.788h8.197v2.867h-11.43V1.305zM94.001 4.205h-4.924c-.01 5.376-.02 10.753-.032 16.128h-3.109V4.205l-5.056-.003.002-2.9c4.363-.01 8.759.015 13.12.005M75.549 1.31h2.982V21.12l-.066-.031L67.162 8.286v12.07h-2.98L64.212.59l11.34 12.612-.003-11.894M121.992 1.327v2.97h-.032c-.734-.012-1.547-.02-2.282-.031-3.697 0-5.514 1.24-6.608 3.778-.806 1.87-.842 4.196.163 5.909 1.004 1.711 2.533 2.903 4.858 3.301 1.295.104 2.593.108 3.888.12.009.845.027 1.62.013 2.961-1.835.02-4.013.033-5.52-.346-4.596-1.156-8.52-6.062-6.64-12.203.39-1.274.957-2.414 1.684-3.359 2.285-2.97 5.262-3.114 10.476-3.1"/>
    </g>
</svg>
