<svg width="282" height="51" viewBox="0 0 282 51" fill="none" xmlns="http://www.w3.org/2000/svg">
<g clip-path="url(#clip0_1720_5599)">
<path d="M208.219 35.5773V35.0596C208.219 34.8592 208.235 34.4084 208.818 34.4084C209.275 34.4084 209.491 34.567 209.491 35.0596V35.5773H210.839C211.039 35.5773 211.488 35.5856 211.488 36.17C211.488 36.6292 211.338 36.8463 210.839 36.8463H209.491V37.6896H211.047C211.255 37.6896 211.696 37.7063 211.696 38.2823C211.696 38.7332 211.546 38.9586 211.047 38.9586H209.907C210.406 40.0273 211.014 40.6034 211.454 41.0125C211.687 41.2379 211.754 41.3715 211.754 41.5551C211.754 41.9476 211.413 42.365 211.063 42.365C210.431 42.365 209.683 40.929 209.491 40.4614V42.2815C209.491 42.4819 209.475 42.9327 208.893 42.9327C208.443 42.9327 208.219 42.7741 208.219 42.2815V40.4364C208.119 40.6535 207.853 41.2295 207.354 41.8474C207.096 42.173 206.896 42.3483 206.663 42.3483C206.281 42.3483 205.915 41.9726 205.915 41.5635C205.915 41.313 205.948 41.2796 206.58 40.6535C206.846 40.3863 207.37 39.7685 207.753 38.9503H206.647C206.555 38.9503 206.497 38.9419 206.447 38.9336C206.672 39.2091 206.747 39.3093 206.747 39.5263C206.747 39.877 206.456 40.0857 206.206 40.0857C206.023 40.0857 205.823 39.9772 205.549 39.4011V42.2899C205.549 42.5737 205.466 42.9411 204.975 42.9411C204.559 42.9411 204.318 42.8159 204.318 42.2899V40.1191C204.102 40.6535 203.927 40.8872 203.661 40.8872C203.278 40.8872 203.07 40.4197 203.07 40.1191C203.07 39.8853 203.095 39.8436 203.503 39.1506C203.644 38.9085 204.01 38.299 204.293 37.2387H203.86C203.677 37.2387 203.212 37.2304 203.212 36.6543C203.212 36.2201 203.345 35.978 203.86 35.978H204.318V35.0513C204.318 34.7257 204.393 34.4084 204.933 34.4084C205.316 34.4084 205.549 34.5503 205.549 35.0513V35.978H205.84C206.048 35.978 206.206 36.0114 206.322 36.2201C206.406 36.0865 206.572 35.8027 206.78 35.1181C206.88 34.7925 206.946 34.5587 207.329 34.5587C207.612 34.5587 207.961 34.7424 207.961 35.093C207.961 35.2433 207.903 35.4437 207.853 35.5773H208.211H208.219ZM207.346 36.8463C207.013 37.4808 206.88 37.5977 206.622 37.5977C206.406 37.5977 206.139 37.4725 206.006 37.2304C205.965 37.2387 205.923 37.2387 205.848 37.2387H205.557V37.5977C205.757 37.9818 205.973 38.3157 206.006 38.3408C206.006 37.9818 206.098 37.6896 206.655 37.6896H208.219V36.8463H207.346Z" fill="white"/>
<path d="M213.818 39.2591H212.903C212.653 39.2591 212.263 39.2006 212.263 38.6412C212.263 38.2071 212.412 37.9566 212.903 37.9566H216.097C216.33 37.9566 216.737 38.0067 216.737 38.5828C216.737 39.0503 216.538 39.2591 216.097 39.2591H215.182V41.0541C215.398 41.0291 216.305 40.8704 216.488 40.8704C216.879 40.8704 216.987 41.2795 216.987 41.5384C216.987 42.0476 216.696 42.1144 216.022 42.248C214.816 42.4901 212.945 42.7406 212.687 42.7406C212.13 42.7406 212.088 42.0894 212.088 41.9725C212.088 41.4632 212.437 41.3881 212.695 41.3547C212.787 41.3463 213.668 41.2461 213.818 41.2294V39.2591ZM212.812 37.08C212.404 37.08 212.146 36.8963 212.146 36.4622C212.146 36.028 212.304 35.7859 212.812 35.7859H216.679C216.679 35.694 216.663 35.1347 216.663 35.118C216.663 34.8174 216.663 34.3833 217.345 34.3833C217.702 34.3833 218.035 34.4834 218.068 34.8758C218.077 35.0011 218.077 35.6189 218.077 35.7859H218.875C218.792 35.6773 218.734 35.5688 218.659 35.4519C218.476 35.1263 218.443 35.0929 218.443 34.951C218.443 34.5168 218.975 34.425 219.183 34.425C219.682 34.425 220.048 35.1681 220.048 35.4436C220.048 35.5521 219.998 35.6773 219.823 35.7859H219.948C220.314 35.7859 220.605 35.9362 220.605 36.4037C220.605 36.8295 220.439 37.08 219.948 37.08H218.101C218.135 38.5828 218.326 39.8352 218.642 40.645C218.65 40.6701 218.867 41.2211 219.141 41.2211C219.341 41.2211 219.441 41.004 219.532 40.837C219.649 40.6116 219.798 40.4864 220.048 40.4864C220.164 40.4864 220.705 40.5198 220.705 41.1543C220.705 41.4799 220.613 41.8473 220.206 42.3649C220.048 42.5736 219.682 42.8909 219.166 42.8909C217.894 42.8909 217.345 41.196 217.245 40.8704C217.095 40.3611 216.854 39.401 216.712 37.08H212.803H212.812Z" fill="white"/>
<path d="M223.574 37.9067C223.342 37.9067 223.024 37.8732 222.941 37.4725C222.525 37.723 222.036 37.9734 221.728 37.9734C221.32 37.9734 221.062 37.5728 221.062 37.1804C221.062 36.7629 221.329 36.6544 221.545 36.5625C222.302 36.262 223.058 35.9279 224.122 34.9344C224.613 34.4752 224.772 34.325 225.329 34.325C225.887 34.325 226.061 34.4835 226.535 34.9344C227.475 35.8194 228.166 36.1785 229.114 36.5709C229.372 36.6794 229.596 36.7879 229.596 37.1886C229.596 37.5894 229.321 37.9818 228.913 37.9818C228.581 37.9818 227.983 37.6228 227.725 37.4725C227.642 37.8482 227.366 37.9067 227.092 37.9067H223.583H223.574ZM227.467 39.8102C227.816 40.0356 228.622 41.0542 228.73 41.1961C229.221 41.8307 229.239 41.9309 229.239 42.1145C229.239 42.5654 228.706 42.8326 228.382 42.8326C228.174 42.8326 228.073 42.7408 227.982 42.6156C227.948 42.5738 227.782 42.3317 227.749 42.2733C226.834 42.3818 226.411 42.4235 225.146 42.507C224.007 42.5905 222.061 42.6907 222.027 42.6907C221.853 42.6907 221.37 42.6906 221.37 41.9893C221.37 41.8474 221.403 41.48 221.719 41.3882C221.827 41.3548 221.903 41.3549 222.635 41.3382C222.709 41.1962 223.059 40.4865 223.283 39.8019H221.928C221.462 39.8019 221.27 39.6015 221.27 39.1172C221.27 38.5078 221.77 38.5079 221.928 38.5079H228.706C229.131 38.5079 229.355 38.6747 229.355 39.184C229.355 39.8019 228.856 39.8019 228.706 39.8019H227.458L227.467 39.8102ZM226.602 36.7127C226.369 36.5374 226.011 36.2453 225.596 35.8111C225.463 35.6692 225.421 35.6274 225.329 35.6274C225.246 35.6274 225.213 35.6608 225.072 35.8111C224.589 36.2954 224.222 36.5875 224.064 36.7127H226.602ZM224.771 39.8102C224.605 40.2026 224.43 40.6117 224.064 41.3047C225.121 41.2796 225.255 41.2714 226.951 41.1795C226.494 40.6619 226.411 40.5617 226.411 40.3279C226.411 40.1777 226.519 39.9521 226.835 39.8102H224.771Z" fill="white"/>
<path d="M232.773 35.644C233.322 35.644 233.614 35.9279 233.614 36.4623C233.614 36.8964 233.489 37.3472 232.865 38.2239C232.99 38.3742 233.131 38.5078 233.464 38.825C233.805 39.1339 233.922 39.2508 233.922 39.4595C233.922 39.7434 233.664 40.1275 233.298 40.1275C232.998 40.1275 232.798 39.877 232.59 39.6098V42.2648C232.59 42.7741 232.366 42.916 231.851 42.916C231.335 42.916 231.234 42.5737 231.234 42.2648V39.9939C230.985 40.1776 230.844 40.2527 230.645 40.2527C230.287 40.2527 229.938 39.8686 229.938 39.4762C229.938 39.1089 230.137 38.967 230.719 38.5495C231.676 37.8649 232.066 37.0801 232.066 37.0133C232.066 36.9048 231.959 36.9047 231.917 36.9047H230.693C230.244 36.9047 230.036 36.7294 230.036 36.2452C230.036 35.644 230.544 35.644 230.693 35.644H231.227V35.0346C231.227 34.5503 231.426 34.375 231.95 34.375C232.549 34.375 232.581 34.7924 232.581 35.0262V35.644H232.765H232.773ZM237.665 36.6376C237.872 36.6376 238.355 36.6459 238.355 37.2721C238.355 37.8064 238.155 38.0068 237.665 38.0068H236.6V41.3381H237.788C237.971 41.3381 238.471 41.3464 238.471 41.9643C238.471 42.4735 238.287 42.6823 237.788 42.6823H233.905C233.689 42.6823 233.131 42.6823 233.131 42.0561C233.131 41.5301 233.373 41.3381 233.905 41.3381H235.202V38.0068H234.155C233.988 38.0068 233.497 38.0068 233.497 37.3639C233.497 36.8296 233.705 36.6376 234.155 36.6376H235.202V35.0596C235.202 34.7925 235.252 34.4084 235.835 34.4084C236.417 34.4084 236.592 34.5754 236.592 35.0596V36.6376H237.656H237.665Z" fill="white"/>
<path d="M247.345 42.2982C247.345 42.4568 247.345 42.9411 246.663 42.9411C246.064 42.9411 245.972 42.5988 245.972 42.2982V40.5449H243.984C243.211 40.5449 242.762 40.2861 242.762 39.3176V36.9632C242.762 35.9947 243.211 35.7359 243.984 35.7359H245.972V34.9928C245.972 34.7925 245.989 34.3667 246.613 34.3667C247.153 34.3667 247.353 34.567 247.353 34.9928V35.7359H249.366C250.139 35.7359 250.589 35.9947 250.589 36.9632V39.3176C250.589 40.2861 250.156 40.5449 249.366 40.5449H247.353V42.2982H247.345ZM245.964 37.0467H244.425C244.226 37.0467 244.126 37.1469 244.126 37.3473V38.9419C244.126 39.1423 244.234 39.2425 244.425 39.2425H245.964V37.0467ZM247.345 39.2508H248.9C249.116 39.2508 249.199 39.1339 249.199 38.9503V37.3556C249.199 37.1552 249.1 37.055 248.9 37.055H247.345V39.2508Z" fill="white"/>
<path d="M253.109 35.2934V34.901C253.109 34.4668 253.434 34.3833 253.8 34.3833C254.141 34.3833 254.399 34.5169 254.399 34.901V35.2934H255.422C255.58 35.2934 256.029 35.3184 256.029 35.8945C256.029 36.1366 255.921 36.3203 255.771 36.4205C255.688 36.4622 255.605 36.4706 255.497 36.4789C255.438 36.8046 255.314 37.2638 255.214 37.6144H255.663C255.904 37.6144 256.22 37.6478 256.22 38.2155C256.22 38.7833 255.838 38.8083 255.663 38.8083H251.912C251.679 38.8083 251.354 38.7749 251.354 38.2072C251.354 37.6395 251.729 37.6144 251.895 37.6144H252.269C252.261 37.3806 252.244 37.0968 252.07 36.4789C251.987 36.4789 251.87 36.4706 251.787 36.4205C251.562 36.2869 251.521 36.0281 251.521 35.8945C251.521 35.3518 251.937 35.2934 252.136 35.2934H253.118H253.109ZM254.657 39.3009C255.588 39.3009 255.779 39.4679 255.779 40.428V41.6553C255.779 42.5988 255.605 42.7825 254.657 42.7825H252.843C251.903 42.7825 251.712 42.6155 251.712 41.6553V40.428C251.712 39.4846 251.887 39.3009 252.843 39.3009H254.657ZM254.548 40.6034C254.548 40.4781 254.49 40.4197 254.365 40.4197H253.143C253.026 40.4197 252.96 40.4781 252.96 40.6034V41.4216C252.96 41.5468 253.018 41.6052 253.143 41.6052H254.365C254.499 41.6052 254.548 41.5301 254.548 41.4216V40.6034ZM253.251 36.4956C253.326 36.8714 253.409 37.4057 253.426 37.6228H254.016C254.124 37.2721 254.182 36.9882 254.257 36.4956H253.251ZM258.549 34.6505C259.14 34.6505 259.672 34.6505 259.672 35.5522C259.672 35.9697 259.581 36.2702 259.148 37.2554C259.106 37.3639 258.824 37.9066 258.824 37.9651C258.824 37.9818 258.824 38.0068 258.874 38.0736C258.907 38.107 259.09 38.3157 259.131 38.3575C259.373 38.633 259.863 39.4262 259.863 40.4113C259.863 41.0709 259.63 41.7138 259.098 41.9309C258.832 42.0394 258.556 42.0477 258.29 42.0477C257.741 42.0477 257.609 41.9642 257.518 41.672V42.2732C257.518 42.7825 257.285 42.9244 256.827 42.9244C256.27 42.9244 256.229 42.5069 256.229 42.2732V35.7526C256.229 34.8258 256.403 34.6505 257.335 34.6505H258.557H258.549ZM257.518 41.0292C257.626 40.762 257.859 40.762 258.009 40.762C258.208 40.762 258.491 40.762 258.491 40.1275C258.491 39.543 258.233 39.0337 258.017 38.7666C257.626 38.2823 257.601 38.2573 257.601 38.082C257.601 37.94 257.651 37.8231 257.742 37.6228C258.067 36.9047 258.35 36.1784 258.35 36.0448C258.35 35.9112 258.224 35.9029 258.174 35.9029H257.691C257.575 35.9029 257.526 35.9613 257.526 36.0698V41.0292H257.518Z" fill="white"/>
<path d="M265.402 35.2266V35.0262C265.402 34.6255 265.61 34.375 266.043 34.375C266.417 34.375 266.725 34.5002 266.725 35.0262V35.2266H268.122C268.272 35.2266 268.788 35.2266 268.788 35.8778C268.788 36.4956 268.447 36.5875 268.122 36.5875H266.725V37.4057H267.457C268.122 37.4057 268.397 37.8983 268.397 38.3241C268.397 39.0671 267.873 40.1024 267.099 40.9791C267.282 41.096 268.214 41.4299 268.388 41.5134C268.513 41.5718 268.696 41.6887 268.696 42.0394C268.696 42.4151 268.48 42.8325 268.047 42.8325C267.74 42.8325 266.966 42.5654 266.026 41.9058C265.111 42.532 264.055 42.891 263.764 42.891C263.348 42.891 263.115 42.4652 263.115 42.1145C263.115 41.7639 263.323 41.6219 263.564 41.5385C263.739 41.48 264.521 41.2128 264.679 41.1544C264.845 41.096 264.937 41.0375 265.028 40.9791C264.413 40.2444 264.105 39.5848 264.105 39.3176C264.105 38.9753 264.471 38.7582 264.82 38.7582C265.045 38.7582 265.161 38.8083 265.361 39.1506C265.827 39.9271 265.91 40.0189 266.084 40.2026C266.733 39.5347 266.925 38.967 266.925 38.8835C266.925 38.7499 266.816 38.7332 266.758 38.7332H264.271C264.105 38.7332 263.614 38.7332 263.614 38.082C263.614 37.4808 263.997 37.414 264.271 37.414H265.411V36.5958H264.022C263.681 36.5958 263.597 36.504 263.514 36.4289C263.573 37.0467 263.265 37.2053 262.891 37.2053H262.641V38.2155C262.774 38.1738 262.907 38.1237 263.057 38.1237C263.398 38.1237 263.589 38.4076 263.589 38.7081C263.589 39.0922 263.415 39.2258 262.633 39.5514V41.7889C262.633 42.8242 262.391 42.8993 261.343 42.8993C260.936 42.8993 260.387 42.8993 260.387 42.1897C260.387 41.8223 260.57 41.5551 260.994 41.5551C261.294 41.5551 261.36 41.5551 261.36 41.313V40.044C261.086 40.1358 260.977 40.1609 260.844 40.1609C260.379 40.1609 260.287 39.6516 260.287 39.4262C260.287 39.3093 260.295 39.0337 260.612 38.8918C260.736 38.8417 260.794 38.8167 261.368 38.658V37.2137H260.953C260.77 37.2137 260.329 37.2053 260.329 36.5708C260.329 36.0198 260.653 35.9279 260.953 35.9279H261.368V35.0847C261.368 34.926 261.368 34.4167 262.001 34.4167C262.633 34.4167 262.641 34.8759 262.641 35.0847V35.9279H262.891C263.215 35.9279 263.306 36.0198 263.373 36.0865C263.298 35.5021 263.556 35.2433 264.022 35.2433H265.411L265.402 35.2266Z" fill="white"/>
<path d="M271.366 37.4725C272.264 37.4725 272.464 37.6311 272.464 38.5829V41.5719C272.464 42.4902 272.298 42.6739 271.366 42.6739H270.984C270.069 42.6739 269.886 42.5069 269.886 41.5719V39.6349C269.844 39.6432 269.811 39.6432 269.778 39.6432C269.545 39.6432 269.195 39.3594 269.195 38.9503C269.195 38.7165 269.229 38.658 269.603 38.0235C269.994 37.3556 270.152 36.5875 270.252 35.9363H269.852C269.586 35.9363 269.27 35.7609 269.27 35.3184C269.27 34.7006 269.778 34.7006 269.927 34.7006H271.973C272.098 34.7006 272.622 34.7006 272.622 35.3101C272.622 35.9196 272.115 35.9363 271.973 35.9363H271.424C271.35 36.5374 271.275 36.9215 271.1 37.4892H271.35L271.366 37.4725ZM271.449 38.825C271.449 38.7332 271.416 38.6664 271.3 38.6664H271.083C270.975 38.6664 270.934 38.7248 270.934 38.825V41.2796C270.934 41.3798 270.967 41.4383 271.083 41.4383H271.3C271.416 41.4383 271.449 41.3798 271.449 41.2796V38.825ZM273.179 38.8501C273.021 38.8501 272.514 38.8501 272.514 38.2072C272.514 37.6061 272.93 37.5643 273.179 37.5643H273.437V35.9112H273.188C272.664 35.9112 272.664 35.3936 272.664 35.2934C272.664 34.9845 272.78 34.6589 273.246 34.6589H277.022C277.18 34.6589 277.604 34.6589 277.604 35.285C277.604 35.9112 277.197 35.9112 277.022 35.9112H276.847V37.5643H277.097C277.347 37.5643 277.737 37.6395 277.737 38.1989C277.737 38.6831 277.471 38.8501 277.097 38.8501H276.847V42.2648C276.847 42.4234 276.847 42.9244 276.207 42.9244C275.616 42.9244 275.55 42.5403 275.55 42.2648V38.8501H274.71C274.71 40.6451 274.302 41.7138 273.995 42.2481C273.703 42.7658 273.529 42.8492 273.263 42.8492C272.805 42.8492 272.456 42.4735 272.456 42.1229C272.456 41.9726 272.506 41.8641 272.664 41.647C272.913 41.2963 273.446 40.5282 273.446 38.8501H273.188H273.179ZM274.702 37.5643H275.542V35.9112H274.702V37.5643Z" fill="white"/>
<path d="M93.9115 35.7609C93.7618 35.5439 93.5539 35.3602 93.2794 35.2183C93.0049 35.068 92.6805 35.0012 92.3146 35.0012C92.0733 35.0012 91.8405 35.0346 91.5992 35.1014C91.358 35.1682 91.1418 35.2684 90.9505 35.4019C90.7592 35.5355 90.6011 35.7108 90.4847 35.9112C90.3682 36.12 90.31 36.3621 90.31 36.6459C90.31 36.863 90.3516 37.0467 90.4265 37.2053C90.5013 37.3556 90.6095 37.4975 90.7425 37.6144C90.8756 37.7313 91.0337 37.8315 91.2166 37.915C91.3996 37.9985 91.5909 38.082 91.7989 38.1571C92.0401 38.2489 92.2813 38.3575 92.5225 38.466C92.772 38.5829 92.9883 38.7248 93.1879 38.8918C93.3875 39.0588 93.5456 39.2592 93.6703 39.4846C93.7951 39.71 93.8533 39.9772 93.8533 40.2861C93.8533 40.5616 93.8034 40.8538 93.7036 41.1628C93.6038 41.4717 93.4374 41.7472 93.2045 42.006C92.9716 42.2648 92.6722 42.4735 92.2896 42.6405C91.907 42.8075 91.4495 42.891 90.8923 42.891C90.3932 42.891 89.9108 42.7908 89.4533 42.5821C88.9875 42.3817 88.6382 42.0728 88.3887 41.672L89.1289 41.1961C89.2786 41.4633 89.5115 41.6971 89.8193 41.8891C90.127 42.0811 90.493 42.173 90.9255 42.173C91.2 42.173 91.4662 42.1312 91.7157 42.0477C91.9652 41.9643 92.1815 41.8474 92.3728 41.6971C92.5641 41.5468 92.7055 41.3631 92.8136 41.1461C92.9217 40.929 92.9716 40.6869 92.9716 40.428C92.9716 40.1943 92.9217 39.9939 92.8302 39.8269C92.7387 39.6599 92.614 39.5096 92.456 39.3844C92.2979 39.2592 92.1149 39.1506 91.9153 39.0588C91.7157 38.967 91.4911 38.8751 91.2665 38.7916C91.0337 38.7081 90.8091 38.608 90.5845 38.4911C90.3599 38.3742 90.1686 38.2406 89.994 38.0736C89.8276 37.915 89.6862 37.723 89.5864 37.4975C89.4783 37.2805 89.4284 37.0216 89.4284 36.7294C89.4284 36.3788 89.4949 36.0615 89.628 35.7526C89.7611 35.452 89.9441 35.1932 90.1936 34.9678C90.4431 34.7507 90.7425 34.5754 91.1085 34.4501C91.4745 34.3249 91.882 34.2581 92.3395 34.2581C92.8968 34.2581 93.3626 34.35 93.7535 34.5336C94.1444 34.7173 94.4272 34.9511 94.6019 35.235L93.8949 35.7442L93.9115 35.7609Z" fill="white"/>
<path d="M96.6557 34.4834H98.8349C99.6334 34.4834 100.257 34.6588 100.69 35.0011C101.131 35.3517 101.347 35.8276 101.347 36.4455C101.347 36.8462 101.272 37.1969 101.114 37.4974C100.956 37.798 100.748 38.0485 100.473 38.2572C100.199 38.4659 99.8746 38.6162 99.492 38.7164C99.1094 38.8166 98.6935 38.8667 98.2444 38.8667H96.6973L96.0319 42.6738H95.2168L96.6557 34.4751V34.4834ZM96.8138 38.1904H98.3109C99.0013 38.1904 99.5419 38.0485 99.9328 37.7729C100.324 37.4974 100.515 37.0883 100.515 36.5456C100.515 36.0447 100.357 35.694 100.041 35.4937C99.7249 35.2933 99.3007 35.1931 98.7601 35.1931H97.3378L96.8055 38.1904H96.8138Z" fill="white"/>
<path d="M102.727 42.6822H101.912L103.351 34.4834H104.166L102.727 42.6822Z" fill="white"/>
<path d="M105.721 42.6822H104.906L106.345 34.4834H108.549C108.907 34.4834 109.248 34.5252 109.556 34.6003C109.863 34.6755 110.13 34.8007 110.354 34.9593C110.579 35.118 110.762 35.3267 110.887 35.5688C111.011 35.8193 111.078 36.1031 111.078 36.4371C111.078 36.8128 111.02 37.1468 110.895 37.4223C110.77 37.6978 110.604 37.9316 110.379 38.1236C110.163 38.3156 109.905 38.4576 109.614 38.5661C109.323 38.6746 109.007 38.7414 108.682 38.7748L110.479 42.6738H109.547L107.842 38.8416H106.403L105.738 42.6738L105.721 42.6822ZM106.52 38.157H107.975C108.25 38.157 108.524 38.132 108.791 38.0902C109.057 38.0485 109.298 37.965 109.514 37.8564C109.73 37.7396 109.905 37.5726 110.038 37.3638C110.171 37.1551 110.238 36.8796 110.238 36.5373C110.238 36.0864 110.08 35.7525 109.755 35.5271C109.431 35.3016 108.99 35.1931 108.416 35.1931H107.036L106.52 38.157Z" fill="white"/>
<path d="M112.633 42.6822H111.818L113.257 34.4834H114.072L112.633 42.6822Z" fill="white"/>
<path d="M117.7 42.6822H116.885L118.199 35.2098H115.463L115.588 34.4834H121.884L121.759 35.2098H119.015L117.7 42.6822Z" fill="white"/>
<path d="M128.312 42.8911C127.78 42.8911 127.298 42.8076 126.849 42.6323C126.399 42.4653 126.017 42.2232 125.692 41.9143C125.368 41.6053 125.119 41.238 124.944 40.8038C124.769 40.3697 124.678 39.8938 124.678 39.3678C124.678 38.6665 124.802 38.0069 125.044 37.3807C125.293 36.7629 125.626 36.2202 126.05 35.761C126.474 35.3018 126.982 34.9428 127.564 34.6757C128.146 34.4085 128.77 34.2749 129.435 34.2749C129.968 34.2749 130.45 34.3584 130.899 34.5254C131.348 34.6924 131.731 34.9261 132.047 35.235C132.363 35.544 132.613 35.9113 132.796 36.3371C132.979 36.7629 133.07 37.2388 133.07 37.7648C133.07 38.4661 132.954 39.1257 132.712 39.7519C132.471 40.3697 132.147 40.9124 131.723 41.3799C131.299 41.8475 130.799 42.2065 130.209 42.482C129.627 42.7492 128.986 42.8911 128.304 42.8911H128.312ZM132.205 37.8566C132.205 37.4642 132.147 37.0885 132.022 36.7462C131.897 36.3956 131.723 36.095 131.481 35.8362C131.249 35.5774 130.957 35.377 130.608 35.2267C130.259 35.0764 129.86 35.0013 129.41 35.0013C128.837 35.0013 128.304 35.1265 127.83 35.3686C127.356 35.6108 126.948 35.9364 126.616 36.3371C126.283 36.7379 126.025 37.1971 125.834 37.7147C125.651 38.2323 125.559 38.7667 125.559 39.3094C125.559 39.7018 125.618 40.0775 125.734 40.4281C125.851 40.7788 126.033 41.0877 126.275 41.3465C126.516 41.6053 126.807 41.8057 127.148 41.956C127.497 42.1063 127.897 42.1814 128.346 42.1814C128.911 42.1814 129.435 42.0645 129.909 41.8224C130.384 41.5803 130.791 41.263 131.124 40.8623C131.465 40.4615 131.723 40.0023 131.914 39.4763C132.105 38.9587 132.197 38.416 132.197 37.865L132.205 37.8566Z" fill="white"/>
<path d="M134.917 42.6822H134.102L135.54 34.4834H140.348L140.223 35.2098H136.231L135.723 38.0735H139.425L139.308 38.7832H135.607L134.917 42.6822Z" fill="white"/>
<path d="M143.218 42.6822H142.27L147.526 34.4834H148.333L150.03 42.6822H149.165L148.724 40.5281H144.549L143.209 42.6822H143.218ZM145.031 39.7684H148.607L147.751 35.4102L145.031 39.7684Z" fill="white"/>
<path d="M152.816 34.4834H155.287C155.744 34.4834 156.202 34.5502 156.659 34.6755C157.117 34.8007 157.524 35.0011 157.882 35.2766C158.239 35.5521 158.539 35.9028 158.755 36.3453C158.98 36.7794 159.088 37.3054 159.088 37.9149C159.088 38.6329 158.963 39.2841 158.714 39.8685C158.464 40.453 158.115 40.9539 157.674 41.3714C157.225 41.7888 156.701 42.1144 156.094 42.3399C155.486 42.5653 154.821 42.6822 154.106 42.6822H151.369L152.808 34.4834H152.816ZM152.317 41.9558H154.164C154.829 41.9558 155.411 41.8473 155.911 41.6218C156.418 41.3964 156.834 41.1042 157.183 40.7368C157.524 40.3695 157.782 39.952 157.957 39.4761C158.131 39.0003 158.214 38.516 158.214 38.0151C158.214 37.6394 158.156 37.2804 158.032 36.938C157.907 36.5957 157.724 36.3035 157.466 36.0447C157.208 35.7859 156.892 35.5855 156.501 35.4436C156.11 35.3016 155.644 35.2265 155.104 35.2265H153.515L152.326 41.9642L152.317 41.9558Z" fill="white"/>
<path d="M162.348 41.6051H162.373L166.524 34.4834H167.438L162.581 42.6822H161.724L160.41 34.4834H161.283L162.348 41.6051Z" fill="white"/>
<path d="M166.349 42.6822H165.4L170.657 34.4834H171.464L173.161 42.6822H172.296L171.855 40.5281H167.679L166.34 42.6822H166.349ZM168.162 39.7684H171.738L170.882 35.4102L168.162 39.7684Z" fill="white"/>
<path d="M180.23 41.5133H180.255L181.486 34.4834H182.302L180.863 42.6822H179.84L176.496 35.5605H176.471L175.223 42.6822H174.408L175.847 34.4834H176.87L180.23 41.5133Z" fill="white"/>
<path d="M190.071 41.3882C189.913 41.5969 189.722 41.7889 189.506 41.9726C189.289 42.1563 189.048 42.3149 188.774 42.4485C188.499 42.5821 188.2 42.6906 187.875 42.7741C187.551 42.8576 187.193 42.8993 186.811 42.8993C186.262 42.8993 185.763 42.8159 185.313 42.6405C184.864 42.4735 184.473 42.2314 184.157 41.9225C183.833 41.6136 183.583 41.2462 183.409 40.8121C183.234 40.3779 183.143 39.902 183.143 39.3761C183.143 38.6664 183.267 37.9985 183.525 37.3806C183.775 36.7628 184.124 36.2285 184.565 35.7693C185.006 35.3101 185.521 34.9511 186.12 34.6839C186.711 34.4167 187.343 34.2832 188.025 34.2832C188.324 34.2832 188.616 34.3166 188.898 34.375C189.181 34.4334 189.439 34.5253 189.68 34.6338C189.921 34.7424 190.129 34.8843 190.321 35.0429C190.512 35.2016 190.662 35.3852 190.778 35.5856L190.03 36.0866C189.971 35.953 189.88 35.8277 189.755 35.6941C189.639 35.5606 189.489 35.4437 189.323 35.3435C189.156 35.2433 188.957 35.1598 188.74 35.093C188.524 35.0346 188.275 35.0012 188.008 35.0012C187.426 35.0012 186.885 35.1264 186.395 35.3685C185.904 35.6107 185.488 35.9363 185.139 36.3287C184.789 36.7211 184.515 37.1803 184.324 37.6979C184.124 38.2155 184.033 38.7499 184.033 39.2926C184.033 39.6933 184.091 40.069 184.216 40.4197C184.34 40.7703 184.523 41.0793 184.765 41.3381C185.006 41.5969 185.305 41.7973 185.654 41.9476C186.004 42.0978 186.411 42.173 186.869 42.173C187.36 42.173 187.834 42.0728 188.275 41.8808C188.715 41.6887 189.123 41.3715 189.472 40.9457L190.088 41.3882H190.071Z" fill="white"/>
<path d="M192.215 41.9558H196.599L196.474 42.6822H191.275L192.714 34.4834H197.613L197.489 35.2098H193.405L192.906 38.0568H196.807L196.682 38.7665H192.781L192.215 41.9475V41.9558Z" fill="white"/>
<path d="M110.115 26.4685C109.708 26.911 109.242 27.3451 108.709 27.7626C108.177 28.18 107.57 28.5474 106.888 28.8647C106.206 29.1819 105.449 29.4324 104.634 29.6161C103.81 29.7997 102.912 29.8916 101.931 29.8916C100.483 29.8916 99.1774 29.6745 98.0213 29.2487C96.8651 28.8229 95.8836 28.2134 95.0685 27.4286C94.2534 26.6438 93.6296 25.7004 93.1888 24.5983C92.7479 23.4962 92.5234 22.2773 92.5234 20.9331C92.5234 19.1715 92.8311 17.51 93.4466 15.9654C94.0621 14.4209 94.9188 13.0683 96.0084 11.9078C97.098 10.7556 98.3872 9.84563 99.8761 9.19441C101.365 8.53484 102.97 8.20923 104.709 8.20923C106.331 8.20923 107.786 8.49309 109.084 9.06918C110.373 9.63691 111.354 10.3716 112.011 11.2649L108.452 14.4626C108.127 13.9617 107.636 13.5108 106.988 13.1268C106.339 12.7427 105.532 12.5423 104.567 12.5423C103.544 12.5423 102.613 12.7594 101.773 13.1936C100.933 13.6277 100.209 14.2121 99.6016 14.9385C98.9944 15.6649 98.5203 16.4998 98.1793 17.4349C97.8383 18.3783 97.6719 19.3468 97.6719 20.357C97.6719 21.0583 97.7801 21.7179 98.0046 22.3441C98.2292 22.9786 98.5536 23.5213 98.9778 23.9888C99.402 24.4564 99.926 24.8237 100.558 25.0909C101.19 25.3581 101.906 25.5 102.712 25.5C103.619 25.5 104.476 25.308 105.291 24.9156C106.106 24.5232 106.813 23.9721 107.437 23.2625L110.132 26.4601L110.115 26.4685Z" fill="white"/>
<path d="M124.22 29.3488L125.726 20.6909H117.766L116.235 29.3488H111.428L115.046 8.77686H119.853L118.464 16.5915H126.458L127.822 8.77686H132.654L129.036 29.3488H124.228H124.22Z" fill="white"/>
<path d="M149.371 25.1242C148.889 26.1261 148.257 26.9693 147.475 27.6706C146.693 28.372 145.761 28.9146 144.68 29.2987C143.599 29.6828 142.351 29.8831 140.945 29.8831C139.714 29.8831 138.592 29.7329 137.602 29.4323C136.604 29.1317 135.755 28.7059 135.057 28.1549C134.35 27.6039 133.809 26.9276 133.435 26.1344C133.06 25.3413 132.869 24.4479 132.869 23.4627C132.869 23.1872 132.886 22.9034 132.911 22.5861C132.944 22.2772 132.977 21.9766 133.011 21.6844L135.273 8.77686H140.047L137.843 21.2419C137.801 21.4339 137.776 21.6427 137.768 21.8514C137.76 22.0601 137.752 22.2605 137.752 22.4358C137.752 22.8616 137.81 23.2707 137.943 23.6548C138.068 24.0388 138.267 24.3895 138.533 24.69C138.8 24.9906 139.157 25.2244 139.606 25.3997C140.047 25.575 140.579 25.6585 141.195 25.6585C142.002 25.6585 142.676 25.525 143.208 25.2661C143.74 25.0073 144.173 24.665 144.514 24.2476C144.855 23.8301 145.104 23.3626 145.279 22.8533C145.454 22.344 145.587 21.818 145.686 21.3004L147.916 8.77686H152.665L150.403 21.7929C150.195 23.0119 149.845 24.1223 149.363 25.1242H149.371Z" fill="white"/>
<path d="M163.412 8.77686C164.127 8.77686 164.842 8.852 165.558 9.01063C166.273 9.16926 166.913 9.41973 167.487 9.77874C168.053 10.1377 168.519 10.6053 168.876 11.173C169.234 11.7407 169.409 12.4504 169.409 13.2769C169.409 14.6712 169.001 15.815 168.194 16.7084C167.387 17.6017 166.331 18.2112 165.042 18.5368V18.5953C166.082 18.7706 166.955 19.2381 167.662 20.0062C168.369 20.7744 168.718 21.7679 168.718 22.9868C168.718 24.0305 168.502 24.9572 168.069 25.7504C167.637 26.5435 167.03 27.2114 166.256 27.7374C165.483 28.2718 164.559 28.6725 163.478 28.9397C162.397 29.2069 161.216 29.3488 159.943 29.3488H151.775L155.394 8.77686H163.412ZM157.889 20.5406L157.049 25.4498H159.86C160.401 25.4498 160.908 25.3997 161.39 25.3079C161.873 25.2077 162.305 25.0574 162.68 24.8403C163.054 24.6233 163.353 24.3394 163.578 23.972C163.803 23.6047 163.911 23.1622 163.911 22.6362C163.911 21.9766 163.661 21.4673 163.154 21.0916C162.646 20.7159 161.939 20.5406 161.008 20.5406H157.88H157.889ZM159.278 12.6675L158.529 17.059H161.482C161.831 17.059 162.189 17.0173 162.572 16.9422C162.946 16.867 163.287 16.7334 163.603 16.5414C163.919 16.3494 164.169 16.0906 164.368 15.765C164.568 15.4393 164.676 15.0302 164.676 14.5543C164.676 13.8781 164.418 13.4022 163.894 13.11C163.37 12.8177 162.713 12.6758 161.923 12.6758H159.286L159.278 12.6675Z" fill="white"/>
<path d="M187.352 25.1242C186.869 26.1261 186.237 26.9693 185.455 27.6706C184.673 28.372 183.742 28.9146 182.661 29.2987C181.579 29.6828 180.332 29.8831 178.926 29.8831C177.695 29.8831 176.572 29.7328 175.582 29.4323C174.584 29.1317 173.736 28.7059 173.037 28.1549C172.33 27.6038 171.79 26.9276 171.415 26.1344C171.041 25.3413 170.85 24.4479 170.85 23.4627C170.85 23.1872 170.866 22.9034 170.891 22.5861C170.924 22.2772 170.958 21.9766 170.991 21.6844L173.253 8.77686H178.028L175.824 21.2419C175.782 21.4339 175.757 21.6427 175.749 21.8514C175.74 22.0601 175.732 22.2605 175.732 22.4358C175.732 22.8616 175.79 23.2707 175.923 23.6548C176.048 24.0388 176.248 24.3895 176.514 24.69C176.78 24.9906 177.138 25.2244 177.587 25.3997C178.028 25.575 178.56 25.6585 179.176 25.6585C179.982 25.6585 180.656 25.5249 181.188 25.2661C181.721 25.0073 182.153 24.665 182.494 24.2475C182.835 23.8301 183.085 23.3626 183.259 22.8533C183.434 22.344 183.567 21.818 183.667 21.3003L185.896 8.77686H190.645L188.383 21.7929C188.175 23.0119 187.826 24.1223 187.343 25.1242H187.352Z" fill="white"/>
<path d="M206.63 25.6919C207.213 25.6752 207.745 25.6168 208.236 25.5333C208.726 25.4498 209.184 25.2995 209.608 25.0824L210.273 21.2169H206.281L207.005 17.2344H215.43L213.551 28.1048C212.511 28.6475 211.338 29.0816 210.032 29.4156C208.726 29.7412 207.387 29.9082 205.998 29.9082C204.534 29.9082 203.195 29.6995 201.989 29.282C200.783 28.8645 199.752 28.2718 198.903 27.4953C198.055 26.7189 197.39 25.7838 196.924 24.6733C196.45 23.5713 196.217 22.3273 196.217 20.9497C196.217 19.188 196.525 17.5266 197.132 15.982C197.739 14.4375 198.587 13.0849 199.677 11.9244C200.766 10.7722 202.047 9.86224 203.528 9.21102C205.008 8.55144 206.614 8.22583 208.352 8.22583C209.974 8.22583 211.446 8.48465 212.769 8.99394C214.091 9.51158 215.131 10.2713 215.879 11.2732L212.378 14.4375C211.995 13.8781 211.463 13.4022 210.797 13.0265C210.132 12.6508 209.284 12.4587 208.261 12.4587C207.238 12.4587 206.323 12.6675 205.466 13.0933C204.609 13.5191 203.861 14.0951 203.237 14.8215C202.605 15.5479 202.114 16.3911 201.756 17.3513C201.399 18.3114 201.224 19.3216 201.224 20.3903C201.224 21.1417 201.34 21.8514 201.573 22.4943C201.806 23.1455 202.156 23.7049 202.613 24.1808C203.07 24.6566 203.644 25.024 204.318 25.2828C204.992 25.5416 205.765 25.6752 206.63 25.6752V25.6919Z" fill="white"/>
<path d="M215.996 29.3488L219.614 8.77686H224.447L220.829 29.3488H215.996Z" fill="white"/>
<path d="M235.767 29.3488L229.837 19.6723H229.754L228.073 29.3488H223.357L226.976 8.77686H231.692L230.153 17.4097H230.236L238.371 8.77686H244.509L234.461 18.5702L241.756 29.3488H235.759H235.767Z" fill="white"/>
<path d="M243.252 29.3488L246.871 8.77686H259.987L259.264 12.9012H250.755L250.056 16.8837H258.166L257.467 20.7744H249.358L248.601 25.191H257.925L257.201 29.3488H243.244H243.252Z" fill="white"/>
<path d="M272.247 29.3488L266.6 15.6898H266.517L264.204 29.3488H259.455L263.073 8.77686H268.488L274.102 22.3523H274.161L276.473 8.77686H281.222L277.604 29.3488H272.247Z" fill="white"/>
<path d="M75.5631 21.1001L51.1594 38.4243H47.0089C42.6173 45.8215 34.5659 50.7808 25.3667 50.7808C11.4597 50.7808 0.189453 39.4679 0.189453 25.5083C0.189453 11.5488 11.4597 0.23584 25.3667 0.23584C37.7765 0.23584 48.0902 9.25277 50.1696 21.1084H75.5631V21.1001Z" fill="white"/>
<path d="M70.6544 22.7114L62.786 28.2969H48.7793C48.7127 28.8396 48.6296 29.3739 48.5381 29.9083H60.5237L56.7891 32.5633H47.881C47.7146 33.1059 47.5233 33.6486 47.3154 34.1746H54.5184L50.7838 36.8213H46.0761C42.0753 44.1851 34.2984 49.1778 25.3654 49.1778C12.3484 49.1778 1.78516 38.5829 1.78516 25.5083C1.78516 12.4338 12.3401 1.83887 25.3654 1.83887C36.8852 1.83887 46.4753 10.1378 48.5381 21.1001H42.0171C40.0791 13.6945 33.3585 8.22586 25.3737 8.22586C15.8667 8.22586 8.16472 15.9571 8.16472 25.5C8.16472 35.0429 15.8667 42.7741 25.3737 42.7741C33.9325 42.7741 41.0273 36.504 42.3581 28.2886H18.6115L29.8735 20.2902V22.7031H70.6628L70.6544 22.7114Z" fill="#C00014"/>
<path d="M33.2338 29.9H39.264C37.4009 35.8278 31.8864 40.1276 25.3654 40.1276C17.3223 40.1276 10.793 33.5819 10.793 25.5001C10.793 17.4183 17.314 10.8726 25.3654 10.8726C29.6905 10.8726 33.5748 12.7679 36.2447 15.7652L31.6535 19.0213C30.0315 17.435 27.8108 16.4498 25.3654 16.4498C20.3915 16.4498 16.3575 20.499 16.3575 25.4917C16.3575 30.4845 20.3915 34.5337 25.3654 34.5337C28.7506 34.5337 31.695 32.6635 33.2338 29.8917V29.9Z" fill="#C00014"/>
</g>
<defs>
<clipPath id="clip0_1720_5599">
<rect width="282" height="51" fill="white"/>
</clipPath>
</defs>
</svg>
